<svg xmlns="http://www.w3.org/2000/svg" width="71" height="10" fill="none" viewBox="0 0 71 10"><path fill="#fff" d="M2.904 9.516a3.6 3.6 0 0 1-1.464-.288 2.7 2.7 0 0 1-1.032-.804A2.05 2.05 0 0 1 0 7.308h1.692a.93.93 0 0 0 .372.636q.336.252.828.252.48 0 .744-.192.276-.192.276-.492 0-.324-.336-.48-.324-.168-1.044-.36A9 9 0 0 1 1.308 6.3a2.2 2.2 0 0 1-.816-.588Q.156 5.316.156 4.644q0-.552.312-1.008.324-.456.912-.72.6-.264 1.404-.264 1.188 0 1.896.6.708.588.78 1.596H3.852a.84.84 0 0 0-.336-.624q-.288-.24-.78-.24-.456 0-.708.168a.54.54 0 0 0-.24.468q0 .336.336.516.336.168 1.044.348.72.18 1.188.372t.804.6q.348.396.36 1.056 0 .576-.324 1.032-.312.456-.912.72-.588.252-1.38.252M15.515 2.76l-1.944 6.648H11.76l-1.212-4.644-1.212 4.644H7.511L5.555 2.76H7.26l1.176 5.064L9.707 2.76h1.776l1.248 5.052 1.176-5.052zM16.916 1.968q-.444 0-.744-.276a.96.96 0 0 1-.288-.708q0-.42.288-.696.3-.288.744-.288t.732.288q.3.276.3.696t-.3.708a1.01 1.01 0 0 1-.732.276m.828.792v6.648h-1.68V2.76zM20.88 4.14v3.216q0 .336.156.492.168.144.552.144h.78v1.416h-1.056q-2.124 0-2.124-2.064V4.14h-.792V2.76h.792V1.116h1.692V2.76h1.488v1.38zM22.784 6.084q0-1.032.42-1.8.42-.78 1.164-1.2.744-.432 1.704-.432 1.236 0 2.04.624.816.612 1.092 1.728h-1.812a1.28 1.28 0 0 0-.492-.672q-.336-.252-.84-.252-.72 0-1.14.528-.42.516-.42 1.476 0 .948.42 1.476.42.516 1.14.516 1.02 0 1.332-.912h1.812q-.276 1.08-1.092 1.716t-2.04.636q-.96 0-1.704-.42a3.05 3.05 0 0 1-1.164-1.2q-.42-.78-.42-1.812M33.579 2.664q.756 0 1.344.336.588.324.912.972.336.636.336 1.536v3.9h-1.68V5.736q0-.792-.396-1.212-.396-.432-1.08-.432-.696 0-1.104.432-.396.42-.396 1.212v3.672h-1.68V.528h1.68v3.06q.324-.432.864-.672.54-.252 1.2-.252M38.609 3.732q.324-.48.888-.78.576-.3 1.308-.3a2.88 2.88 0 0 1 2.628 1.62q.408.768.408 1.788t-.408 1.812q-.396.78-1.092 1.212a2.8 2.8 0 0 1-1.536.432q-.744 0-1.308-.288a2.6 2.6 0 0 1-.888-.768v.948h-1.68V.528h1.68zm3.516 2.328q0-.6-.252-1.032a1.701 1.701 0 0 0-1.512-.9q-.456 0-.864.24-.396.228-.648.672-.24.444-.24 1.044t.24 1.044q.252.444.648.684.408.228.864.228.468 0 .864-.24.408-.24.648-.684.252-.444.252-1.056M47.773 9.516q-.96 0-1.728-.42a3.15 3.15 0 0 1-1.212-1.212q-.432-.78-.432-1.8t.444-1.8q.456-.78 1.236-1.2a3.53 3.53 0 0 1 1.74-.432q.96 0 1.74.432.78.42 1.224 1.2.456.78.456 1.8t-.468 1.8q-.456.78-1.248 1.212-.78.42-1.752.42m0-1.464q.456 0 .852-.216.408-.228.648-.672t.24-1.08q0-.948-.504-1.452a1.6 1.6 0 0 0-1.212-.516q-.72 0-1.212.516-.48.504-.48 1.452t.468 1.464q.48.504 1.2.504M51.802 6.06q0-1.008.396-1.788.408-.78 1.092-1.2.696-.42 1.548-.42.744 0 1.296.3.564.3.9.756V2.76h1.692v6.648h-1.692v-.972a2.54 2.54 0 0 1-.9.78q-.564.3-1.308.3-.84 0-1.536-.432a3.1 3.1 0 0 1-1.092-1.212q-.396-.792-.396-1.812m5.232.024q0-.612-.24-1.044a1.64 1.64 0 0 0-.648-.672 1.7 1.7 0 0 0-.876-.24q-.468 0-.864.228t-.648.672q-.24.432-.24 1.032t.24 1.056q.252.444.648.684.408.24.864.24.468 0 .876-.228.408-.24.648-.672.24-.444.24-1.056M61.207 3.792q.324-.528.84-.828.528-.3 1.2-.3v1.764h-.444q-.792 0-1.2.372-.396.372-.396 1.296v3.312h-1.68V2.76h1.68zM63.706 6.06q0-1.008.396-1.788.408-.78 1.104-1.2t1.548-.42q.648 0 1.236.288.588.276.936.744V.528h1.704v8.88h-1.704v-.984q-.312.492-.876.792t-1.308.3q-.84 0-1.536-.432a3.06 3.06 0 0 1-1.104-1.212q-.396-.792-.396-1.812m5.232.024q0-.612-.24-1.044a1.64 1.64 0 0 0-.648-.672 1.7 1.7 0 0 0-.876-.24q-.468 0-.864.228t-.648.672q-.24.432-.24 1.032t.24 1.056q.252.444.648.684.408.24.864.24.468 0 .876-.228.408-.24.648-.672.24-.444.24-1.056"/></svg>
