<svg xmlns="http://www.w3.org/2000/svg" width="72" height="10" fill="none" viewBox="0 0 72 10"><path fill="currentColor" d="M3.084 9.708q-.876 0-1.56-.3t-1.08-.816A2.2 2.2 0 0 1 0 7.416h2.028a.78.78 0 0 0 .324.564q.288.216.708.216.384 0 .588-.144a.47.47 0 0 0 .216-.396q0-.288-.3-.42-.3-.144-.972-.312a10 10 0 0 1-1.2-.348 2.15 2.15 0 0 1-.828-.588Q.216 5.58.216 4.896q0-.576.312-1.044.324-.48.936-.756.624-.276 1.476-.276 1.26 0 1.98.624.732.624.84 1.656H3.864a.8.8 0 0 0-.312-.552q-.252-.204-.672-.204-.36 0-.552.144a.43.43 0 0 0-.192.372q0 .288.3.432.312.144.96.288.744.192 1.212.384.468.18.816.6.36.408.372 1.104 0 .588-.336 1.056-.324.456-.948.72-.612.264-1.428.264M16.063 2.916l-1.812 6.696h-2.268l-1.056-4.344-1.092 4.344H7.58L5.755 2.916h2.052l.948 4.788 1.128-4.788h2.172l1.14 4.764.936-4.764zM17.518 2.22q-.54 0-.888-.312a1.06 1.06 0 0 1-.336-.792q0-.48.336-.792.348-.324.888-.324.528 0 .864.324.348.312.348.792 0 .468-.348.792-.336.312-.864.312m1.02.696v6.696h-2.052V2.916zM23.157 7.872v1.74h-1.044q-1.116 0-1.74-.54-.624-.552-.624-1.788V4.62h-.816V2.916h.816V1.284h2.052v1.632h1.344V4.62h-1.344v2.688q0 .3.144.432t.48.132zM23.292 6.264q0-1.044.42-1.824.432-.78 1.188-1.2.768-.42 1.752-.42 1.26 0 2.1.66.852.66 1.116 1.86h-2.184q-.276-.768-1.068-.768-.564 0-.9.444-.336.432-.336 1.248t.336 1.26q.336.432.9.432.792 0 1.068-.768h2.184q-.264 1.176-1.116 1.848t-2.1.672q-.984 0-1.752-.42-.756-.42-1.188-1.2-.42-.78-.42-1.824M34.482 2.844q1.152 0 1.848.768.696.756.696 2.088v3.912h-2.04V5.976q0-.672-.348-1.044t-.936-.372-.936.372-.348 1.044v3.636h-2.052V.732h2.052v3.084q.312-.444.852-.708t1.212-.264M39.664 3.864q.288-.468.828-.756t1.236-.288q.828 0 1.5.42t1.056 1.2q.396.78.396 1.812t-.396 1.824q-.384.78-1.056 1.212-.672.42-1.5.42-.708 0-1.236-.276a2.2 2.2 0 0 1-.828-.756v.936h-2.052V.732h2.052zm2.928 2.388q0-.768-.432-1.2a1.38 1.38 0 0 0-1.044-.444q-.612 0-1.044.444-.42.444-.42 1.212t.42 1.212q.432.444 1.044.444t1.044-.444q.432-.456.432-1.224M48.564 9.708q-.984 0-1.776-.42-.78-.42-1.236-1.2-.444-.78-.444-1.824 0-1.032.456-1.812.456-.792 1.248-1.212t1.776-.42 1.776.42 1.248 1.212q.456.78.456 1.812T51.6 8.088q-.456.78-1.26 1.2-.792.42-1.776.42m0-1.776q.588 0 .996-.432.42-.432.42-1.236t-.408-1.236a1.28 1.28 0 0 0-.984-.432q-.6 0-.996.432-.396.42-.396 1.236 0 .804.384 1.236.396.432.984.432M52.509 6.252q0-1.032.384-1.812.396-.78 1.068-1.2t1.5-.42q.708 0 1.236.288.54.288.828.756v-.948h2.052v6.696h-2.052v-.948q-.3.468-.84.756-.528.288-1.236.288-.816 0-1.488-.42a3.04 3.04 0 0 1-1.068-1.212q-.384-.792-.384-1.824m5.016.012q0-.768-.432-1.212a1.37 1.37 0 0 0-1.032-.444q-.612 0-1.044.444-.42.432-.42 1.2t.42 1.224q.432.444 1.044.444t1.032-.444q.432-.444.432-1.212M62.273 4.032q.36-.552.9-.864.54-.324 1.2-.324v2.172h-.564q-.768 0-1.152.336-.384.324-.384 1.152v3.108h-2.052V2.916h2.052zM64.706 6.252q0-1.032.384-1.812.396-.78 1.068-1.2t1.5-.42q.66 0 1.2.276.552.276.864.744V.732h2.052v8.88h-2.052v-.96a2.1 2.1 0 0 1-.828.768q-.528.288-1.236.288-.828 0-1.5-.42a3.04 3.04 0 0 1-1.068-1.212q-.384-.792-.384-1.824m5.016.012q0-.768-.432-1.212a1.37 1.37 0 0 0-1.032-.444q-.612 0-1.044.444-.42.432-.42 1.2t.42 1.224q.432.444 1.044.444t1.032-.444q.432-.444.432-1.212"/></svg>
